<?xml version="1.0" encoding="UTF-8"?>
<svg xmlns="http://www.w3.org/2000/svg" xmlns:xlink="http://www.w3.org/1999/xlink" width="25px" height="25px" viewBox="0 0 25 25" version="1.1">
<g id="surface1">
<path style=" stroke:none;fill-rule:evenodd;fill:rgb(12.54902%,45.490196%,29.019609%);fill-opacity:1;" d="M 22.484375 3.441406 L 14.570312 3.441406 L 14.570312 1.578125 L 1.5625 3.585938 L 1.5625 21.183594 L 14.570312 23.425781 L 14.570312 20.660156 L 22.484375 20.660156 C 22.984375 20.683594 23.410156 20.304688 23.4375 19.804688 L 23.4375 4.296875 C 23.410156 3.796875 22.984375 3.417969 22.484375 3.441406 Z M 22.609375 19.945312 L 14.542969 19.945312 L 14.53125 18.46875 L 16.472656 18.46875 L 16.472656 16.75 L 14.515625 16.75 L 14.507812 15.734375 L 16.472656 15.734375 L 16.472656 14.015625 L 14.492188 14.015625 L 14.484375 13 L 16.472656 13 L 16.472656 11.28125 L 14.476562 11.28125 L 14.476562 10.265625 L 16.472656 10.265625 L 16.472656 8.546875 L 14.476562 8.546875 L 14.476562 7.53125 L 16.472656 7.53125 L 16.472656 5.8125 L 14.476562 5.8125 L 14.476562 4.25 L 22.609375 4.25 Z M 22.609375 19.945312 "/>
<path style=" stroke:none;fill-rule:nonzero;fill:rgb(12.54902%,45.490196%,29.019609%);fill-opacity:1;" d="M 17.566406 5.8125 L 20.945312 5.8125 L 20.945312 7.53125 L 17.566406 7.53125 Z M 17.566406 5.8125 "/>
<path style=" stroke:none;fill-rule:nonzero;fill:rgb(12.54902%,45.490196%,29.019609%);fill-opacity:1;" d="M 17.566406 8.546875 L 20.945312 8.546875 L 20.945312 10.265625 L 17.566406 10.265625 Z M 17.566406 8.546875 "/>
<path style=" stroke:none;fill-rule:nonzero;fill:rgb(12.54902%,45.490196%,29.019609%);fill-opacity:1;" d="M 17.566406 11.28125 L 20.945312 11.28125 L 20.945312 13 L 17.566406 13 Z M 17.566406 11.28125 "/>
<path style=" stroke:none;fill-rule:nonzero;fill:rgb(12.54902%,45.490196%,29.019609%);fill-opacity:1;" d="M 17.566406 14.015625 L 20.945312 14.015625 L 20.945312 15.734375 L 17.566406 15.734375 Z M 17.566406 14.015625 "/>
<path style=" stroke:none;fill-rule:nonzero;fill:rgb(12.54902%,45.490196%,29.019609%);fill-opacity:1;" d="M 17.566406 16.753906 L 20.945312 16.753906 L 20.945312 18.472656 L 17.566406 18.472656 Z M 17.566406 16.753906 "/>
<path style=" stroke:none;fill-rule:evenodd;fill:rgb(100%,100%,100%);fill-opacity:1;" d="M 4.957031 8.339844 L 6.636719 8.242188 L 7.6875 11.140625 L 8.933594 8.121094 L 10.609375 8.027344 L 8.574219 12.140625 L 10.609375 16.265625 L 8.839844 16.144531 L 7.640625 13 L 6.445312 16.027344 L 4.816406 15.882812 L 6.707031 12.238281 Z M 4.957031 8.339844 "/>
</g>
</svg>
