<?xml version="1.0" encoding="UTF-8"?>
<svg xmlns="http://www.w3.org/2000/svg" xmlns:xlink="http://www.w3.org/1999/xlink" width="28px" height="28px" viewBox="0 0 28 28" version="1.1">
<g id="surface1">
<path style=" stroke:none;fill-rule:nonzero;fill:rgb(10.196079%,73.725492%,99.607843%);fill-opacity:1;" d="M 14.960938 14 C 14.960938 11.746094 16.746094 9.917969 18.945312 9.917969 C 21.140625 9.917969 22.925781 11.742188 22.925781 14 C 22.925781 16.253906 21.144531 18.082031 18.945312 18.082031 C 16.746094 18.082031 14.960938 16.257812 14.960938 14 "/>
<path style=" stroke:none;fill-rule:nonzero;fill:rgb(3.921569%,81.176472%,51.372552%);fill-opacity:1;" d="M 7 22.167969 C 7 19.910156 8.785156 18.082031 10.980469 18.082031 L 14.960938 18.082031 L 14.960938 22.167969 C 14.960938 24.421875 13.179688 26.25 10.980469 26.25 C 8.785156 26.25 7 24.421875 7 22.167969 "/>
<path style=" stroke:none;fill-rule:nonzero;fill:rgb(100%,44.705883%,38.431373%);fill-opacity:1;" d="M 14.960938 1.75 L 14.960938 9.917969 L 18.945312 9.917969 C 21.144531 9.917969 22.925781 8.089844 22.925781 5.832031 C 22.925781 3.578125 21.144531 1.75 18.945312 1.75 Z M 14.960938 1.75 "/>
<path style=" stroke:none;fill-rule:nonzero;fill:rgb(94.901961%,30.588236%,11.764706%);fill-opacity:1;" d="M 7 5.832031 C 7 8.089844 8.785156 9.917969 10.980469 9.917969 L 14.960938 9.917969 L 14.960938 1.75 L 10.980469 1.75 C 8.785156 1.75 7 3.578125 7 5.832031 "/>
<path style=" stroke:none;fill-rule:nonzero;fill:rgb(63.529414%,34.901962%,100%);fill-opacity:1;" d="M 7 14 C 7 16.253906 8.785156 18.082031 10.980469 18.082031 L 14.960938 18.082031 L 14.960938 9.917969 L 10.980469 9.917969 C 8.785156 9.917969 7 11.742188 7 14 "/>
</g>
</svg>
