<?xml version="1.0" encoding="UTF-8"?>
<svg xmlns="http://www.w3.org/2000/svg" xmlns:xlink="http://www.w3.org/1999/xlink" width="26px" height="26px" viewBox="0 0 26 26" version="1.1">
<g id="surface1">
<path style=" stroke:none;fill-rule:nonzero;fill:rgb(0%,0%,0%);fill-opacity:1;" d="M 24.394531 12.300781 C 23.941406 12.265625 23.484375 12.335938 23.058594 12.5 L 23.078125 12.492188 C 22.976562 12.53125 22.816406 12.53125 22.800781 12.660156 C 22.859375 12.714844 22.867188 12.804688 22.914062 12.878906 C 23.007812 13.039062 23.125 13.175781 23.261719 13.289062 L 23.265625 13.292969 C 23.40625 13.402344 23.546875 13.511719 23.699219 13.605469 C 23.960938 13.769531 24.261719 13.867188 24.519531 14.027344 C 24.667969 14.125 24.816406 14.246094 24.96875 14.347656 C 25.042969 14.398438 25.089844 14.488281 25.183594 14.519531 L 25.183594 14.5 C 25.136719 14.441406 25.125 14.351562 25.078125 14.285156 C 25.007812 14.214844 24.941406 14.15625 24.875 14.089844 C 24.679688 13.828125 24.441406 13.597656 24.179688 13.410156 L 24.167969 13.402344 C 23.953125 13.253906 23.476562 13.046875 23.386719 12.796875 L 23.375 12.785156 C 23.550781 12.757812 23.707031 12.722656 23.859375 12.671875 L 23.839844 12.675781 C 24.070312 12.617188 24.28125 12.628906 24.519531 12.570312 C 24.628906 12.542969 24.738281 12.507812 24.847656 12.472656 L 24.847656 12.414062 C 24.722656 12.292969 24.632812 12.125 24.507812 12.011719 C 24.175781 11.71875 23.808594 11.445312 23.421875 11.199219 L 23.386719 11.175781 C 23.171875 11.039062 22.902344 10.953125 22.679688 10.835938 C 22.597656 10.796875 22.460938 10.777344 22.414062 10.707031 C 22.304688 10.550781 22.214844 10.382812 22.140625 10.203125 L 22.136719 10.183594 C 21.9375 9.796875 21.75 9.40625 21.578125 9.003906 C 21.476562 8.726562 21.355469 8.453125 21.214844 8.191406 L 21.234375 8.230469 C 20.609375 7.175781 19.714844 6.304688 18.644531 5.710938 L 18.609375 5.691406 C 18.339844 5.5625 18.054688 5.46875 17.757812 5.417969 L 17.738281 5.414062 C 17.570312 5.40625 17.402344 5.390625 17.230469 5.386719 C 17.121094 5.3125 17.011719 5.234375 16.914062 5.144531 L 16.917969 5.148438 C 16.53125 4.902344 15.53125 4.375 15.25 5.074219 C 15.066406 5.515625 15.519531 5.949219 15.675781 6.171875 C 15.800781 6.320312 15.914062 6.488281 16.011719 6.664062 L 16.023438 6.679688 C 16.070312 6.796875 16.082031 6.917969 16.128906 7.042969 C 16.25 7.410156 16.367188 7.710938 16.503906 8.003906 L 16.480469 7.953125 C 16.5625 8.113281 16.648438 8.25 16.738281 8.382812 L 16.734375 8.371094 C 16.789062 8.445312 16.882812 8.480469 16.902344 8.601562 C 16.828125 8.757812 16.777344 8.925781 16.75 9.097656 L 16.746094 9.109375 C 16.652344 9.402344 16.605469 9.707031 16.609375 10.011719 C 16.609375 10.515625 16.734375 10.992188 16.953125 11.410156 L 16.945312 11.394531 C 17.054688 11.5625 17.3125 11.9375 17.65625 11.792969 C 17.960938 11.671875 17.894531 11.285156 17.980469 10.945312 C 18.003906 10.863281 17.988281 10.808594 18.03125 10.753906 L 18.03125 10.769531 C 18.125 10.960938 18.222656 11.144531 18.308594 11.335938 C 18.554688 11.6875 18.84375 11.988281 19.179688 12.234375 L 19.191406 12.242188 C 19.351562 12.367188 19.480469 12.578125 19.683594 12.652344 L 19.683594 12.632812 L 19.667969 12.632812 C 19.625 12.582031 19.570312 12.535156 19.515625 12.496094 L 19.511719 12.496094 C 19.386719 12.371094 19.269531 12.238281 19.164062 12.097656 L 19.15625 12.089844 C 18.890625 11.734375 18.640625 11.328125 18.421875 10.902344 L 18.398438 10.851562 C 18.285156 10.640625 18.195312 10.410156 18.105469 10.199219 C 18.0625 10.117188 18.0625 9.996094 17.996094 9.957031 C 17.871094 10.09375 17.765625 10.242188 17.675781 10.402344 L 17.671875 10.417969 C 17.558594 10.746094 17.496094 11.085938 17.480469 11.433594 L 17.480469 11.441406 C 17.453125 11.449219 17.464844 11.441406 17.453125 11.457031 C 17.234375 11.402344 17.160156 11.179688 17.078125 10.988281 C 16.964844 10.667969 16.90625 10.328125 16.90625 9.988281 C 16.90625 9.699219 16.945312 9.421875 17.023438 9.15625 L 17.019531 9.175781 C 17.066406 9.035156 17.269531 8.585938 17.1875 8.449219 C 17.148438 8.320312 17.011719 8.246094 16.9375 8.140625 C 16.84375 8.011719 16.765625 7.871094 16.699219 7.722656 L 16.695312 7.707031 C 16.53125 7.328125 16.449219 6.90625 16.273438 6.527344 C 16.175781 6.34375 16.058594 6.164062 15.929688 6 L 15.9375 6.007812 C 15.796875 5.847656 15.675781 5.675781 15.570312 5.496094 L 15.5625 5.480469 C 15.527344 5.40625 15.480469 5.28125 15.535156 5.203125 L 15.628906 5.109375 C 15.71875 5.039062 15.96875 5.132812 16.058594 5.171875 C 16.316406 5.269531 16.539062 5.386719 16.742188 5.519531 L 16.730469 5.511719 C 16.824219 5.578125 16.929688 5.707031 17.050781 5.742188 L 17.191406 5.742188 C 17.410156 5.789062 17.65625 5.753906 17.859375 5.816406 C 18.230469 5.941406 18.554688 6.097656 18.851562 6.292969 L 18.835938 6.28125 C 19.722656 6.851562 20.445312 7.636719 20.9375 8.570312 L 20.953125 8.601562 C 21.03125 8.757812 21.070312 8.902344 21.144531 9.066406 C 21.285156 9.398438 21.460938 9.738281 21.605469 10.0625 C 21.742188 10.410156 21.90625 10.710938 22.097656 10.988281 L 22.089844 10.972656 C 22.191406 11.113281 22.597656 11.1875 22.78125 11.261719 C 22.972656 11.332031 23.128906 11.394531 23.277344 11.46875 L 23.246094 11.453125 C 23.480469 11.597656 23.707031 11.757812 23.925781 11.914062 C 24.039062 11.992188 24.378906 12.160156 24.398438 12.296875 Z M 14.871094 18.242188 L 14.871094 18.28125 C 14.871094 18.734375 14.667969 19.140625 14.347656 19.414062 C 13.949219 19.738281 13.445312 19.902344 12.9375 19.871094 L 12.941406 19.871094 C 12.363281 19.863281 11.804688 19.679688 11.335938 19.34375 L 11.34375 19.347656 L 11.582031 18.867188 C 11.933594 19.058594 12.347656 19.179688 12.789062 19.199219 L 12.792969 19.199219 C 12.8125 19.199219 12.839844 19.199219 12.863281 19.199219 C 13.136719 19.199219 13.386719 19.117188 13.589844 18.972656 L 13.585938 18.976562 C 13.78125 18.832031 13.890625 18.605469 13.890625 18.363281 L 13.890625 18.351562 C 13.890625 18.015625 13.660156 17.730469 13.234375 17.492188 C 12.839844 17.277344 12.054688 16.824219 12.054688 16.824219 C 11.65625 16.582031 11.410156 16.148438 11.410156 15.679688 L 11.410156 15.628906 L 11.410156 15.632812 L 11.410156 15.578125 C 11.410156 15.160156 11.59375 14.785156 11.886719 14.53125 L 11.886719 14.527344 C 12.234375 14.234375 12.679688 14.085938 13.128906 14.109375 L 13.125 14.109375 L 13.152344 14.109375 C 13.652344 14.105469 14.140625 14.253906 14.558594 14.53125 L 14.546875 14.523438 L 14.332031 15.007812 C 13.992188 14.855469 13.625 14.777344 13.253906 14.773438 L 13.1875 14.773438 C 12.960938 14.773438 12.75 14.851562 12.585938 14.984375 L 12.589844 14.984375 C 12.429688 15.113281 12.335938 15.308594 12.335938 15.515625 C 12.335938 15.847656 12.574219 16.132812 13.011719 16.378906 C 13.410156 16.597656 14.21875 17.058594 14.21875 17.058594 C 14.613281 17.292969 14.875 17.714844 14.875 18.203125 L 14.875 18.246094 L 14.875 18.242188 Z M 16.554688 18.671875 C 16.28125 18.125 16.164062 17.511719 16.210938 16.898438 L 16.210938 16.910156 C 16.210938 15.496094 16.640625 14.789062 17.5 14.789062 C 17.523438 14.789062 17.546875 14.785156 17.574219 14.785156 C 17.960938 14.785156 18.296875 14.988281 18.492188 15.292969 L 18.492188 15.296875 C 18.761719 15.84375 18.878906 16.449219 18.832031 17.058594 L 18.835938 17.046875 C 18.835938 18.472656 18.40625 19.183594 17.546875 19.1875 L 17.472656 19.1875 C 17.085938 19.1875 16.746094 18.988281 16.554688 18.683594 L 16.550781 18.679688 Z M 19.898438 19.933594 L 18.863281 19.425781 C 18.957031 19.347656 19.042969 19.265625 19.121094 19.175781 L 19.125 19.171875 C 19.613281 18.511719 19.847656 17.695312 19.78125 16.875 L 19.78125 16.886719 C 19.78125 15.027344 19.050781 14.097656 17.59375 14.097656 L 17.484375 14.09375 C 16.863281 14.09375 16.300781 14.367188 15.921875 14.804688 L 15.917969 14.804688 C 15.433594 15.464844 15.199219 16.277344 15.265625 17.097656 L 15.261719 17.085938 C 15.199219 17.859375 15.40625 18.632812 15.851562 19.269531 L 15.847656 19.257812 C 16.261719 19.699219 16.855469 19.929688 17.460938 19.882812 L 17.453125 19.882812 L 17.476562 19.882812 C 17.730469 19.882812 17.976562 19.847656 18.207031 19.777344 L 18.1875 19.785156 L 19.535156 20.566406 L 19.902344 19.9375 Z M 23.265625 19.796875 L 20.597656 19.796875 L 20.597656 14.183594 L 21.496094 14.183594 L 21.496094 19.109375 L 23.265625 19.109375 Z M 10.753906 15.65625 C 10.539062 17.269531 10.011719 18.828125 9.207031 20.246094 L 9.238281 20.183594 C 8.925781 20.792969 8.324219 21.203125 7.640625 21.273438 L 7.632812 21.273438 C 7.429688 21.261719 7.230469 21.214844 7.046875 21.128906 L 7.054688 21.132812 L 7.054688 20.632812 C 7.167969 20.648438 7.296875 20.660156 7.425781 20.660156 L 7.492188 20.660156 C 7.726562 20.660156 7.941406 20.574219 8.105469 20.433594 C 8.285156 20.285156 8.398438 20.066406 8.40625 19.820312 C 8.367188 19.480469 8.285156 19.148438 8.164062 18.832031 L 8.171875 18.859375 L 7.144531 15.65625 L 8.066406 15.65625 L 8.804688 18.050781 C 8.9375 18.390625 9.011719 18.78125 9.011719 19.191406 C 9.429688 18.074219 9.710938 16.914062 9.851562 15.730469 L 9.859375 15.65625 Z M 6.675781 19.796875 L 5.734375 19.796875 C 5.707031 18.300781 5.617188 16.808594 5.460938 15.320312 L 5.453125 15.320312 L 4.019531 19.796875 L 3.304688 19.796875 L 1.882812 15.320312 L 1.871094 15.320312 C 1.761719 16.808594 1.695312 18.300781 1.675781 19.796875 L 0.816406 19.796875 C 0.871094 17.800781 1.011719 15.929688 1.234375 14.183594 L 2.398438 14.183594 L 3.753906 18.308594 L 3.761719 18.308594 L 5.132812 14.183594 L 6.242188 14.183594 C 6.488281 16.226562 6.632812 18.101562 6.675781 19.796875 Z M 17.472656 6.402344 L 17.464844 6.402344 C 17.371094 6.402344 17.277344 6.414062 17.1875 6.4375 L 17.195312 6.433594 L 17.195312 6.449219 L 17.207031 6.449219 C 17.277344 6.550781 17.351562 6.640625 17.425781 6.726562 C 17.480469 6.832031 17.527344 6.941406 17.582031 7.050781 L 17.59375 7.035156 C 17.699219 6.953125 17.75 6.824219 17.738281 6.695312 C 17.695312 6.648438 17.691406 6.601562 17.65625 6.554688 C 17.617188 6.484375 17.527344 6.453125 17.472656 6.398438 Z M 17.472656 6.402344 "/>
</g>
</svg>
