<?xml version="1.0" encoding="UTF-8"?>
<svg xmlns="http://www.w3.org/2000/svg" xmlns:xlink="http://www.w3.org/1999/xlink" width="26px" height="26px" viewBox="0 0 26 26" version="1.1">
<g id="surface1">
<path style=" stroke:none;fill-rule:nonzero;fill:rgb(0%,67.843139%,93.725491%);fill-opacity:1;" d="M 24.375 12.1875 L 13.8125 12.1875 C 13.324219 12.1875 13 11.863281 13 11.375 L 13 2.679688 C 13 2.273438 13.324219 1.949219 13.648438 1.867188 L 24.210938 0 C 24.457031 0 24.699219 0 24.863281 0.164062 C 25.105469 0.324219 25.1875 0.570312 25.1875 0.8125 L 25.1875 11.375 C 25.1875 11.863281 24.863281 12.1875 24.375 12.1875 Z M 24.375 12.1875 "/>
<path style=" stroke:none;fill-rule:nonzero;fill:rgb(0%,67.843139%,93.725491%);fill-opacity:1;" d="M 10.5625 12.1875 L 0.8125 12.1875 C 0.324219 12.1875 0 11.863281 0 11.375 L 0 4.875 C 0 4.46875 0.324219 4.144531 0.648438 4.0625 L 10.398438 2.4375 C 10.644531 2.4375 10.886719 2.4375 11.050781 2.601562 C 11.292969 2.761719 11.375 3.007812 11.375 3.25 L 11.375 11.375 C 11.375 11.863281 11.050781 12.1875 10.5625 12.1875 Z M 10.5625 12.1875 "/>
<path style=" stroke:none;fill-rule:nonzero;fill:rgb(0%,67.843139%,93.725491%);fill-opacity:1;" d="M 24.375 26 C 24.292969 26 24.292969 26 24.210938 26 L 13.648438 24.132812 C 13.242188 24.050781 13 23.726562 13 23.320312 L 13 14.625 C 13 14.136719 13.324219 13.8125 13.8125 13.8125 L 24.375 13.8125 C 24.863281 13.8125 25.1875 14.136719 25.1875 14.625 L 25.1875 25.1875 C 25.1875 25.429688 25.105469 25.675781 24.863281 25.835938 C 24.78125 25.917969 24.539062 26 24.375 26 Z M 24.375 26 "/>
<path style=" stroke:none;fill-rule:nonzero;fill:rgb(0%,67.843139%,93.725491%);fill-opacity:1;" d="M 10.5625 23.5625 C 10.480469 23.5625 10.480469 23.5625 10.398438 23.5625 L 0.648438 21.9375 C 0.324219 21.855469 0 21.53125 0 21.125 L 0 14.625 C 0 14.136719 0.324219 13.8125 0.8125 13.8125 L 10.5625 13.8125 C 11.050781 13.8125 11.375 14.136719 11.375 14.625 L 11.375 22.75 C 11.375 22.992188 11.292969 23.238281 11.050781 23.398438 C 10.96875 23.480469 10.726562 23.5625 10.5625 23.5625 Z M 10.5625 23.5625 "/>
</g>
</svg>
